{
  "accessors": [
    {
      "bufferView": 2,
      "componentType": 5126,
      "count": 23198,
      "max": [
        -3.0368685722351074,
        28.526500701904297,
        6.8077921867370605
      ],
      "min": [
        -14.683177947998047,
        -0.07598382979631424,
        -1.7054333686828613
      ],
      "type": "VEC3"
    },
    {
      "bufferView": 2,
      "byteOffset": 278376,
      "componentType": 5126,
      "count": 23198,
      "max": [
        0.99995404481887817,
        0.99993884563446045,
        0.99997466802597046
      ],
      "min": [
        -0.99998307228088379,
        -0.99999129772186279,
        -0.99995827674865723
      ],
      "type": "VEC3"
    },
    {
      "bufferView": 1,
      "componentType": 5126,
      "count": 23198,
      "max": [
        0.99800801277160645,
        0.97496700286865234
      ],
      "min": [
        0.0019920000340789557,
        0.0019460000330582261
      ],
      "type": "VEC2"
    },
    {
      "bufferView": 0,
      "componentType": 5125,
      "count": 123264,
      "max": [
        23197
      ],
      "min": [
        0
      ],
      "type": "SCALAR"
    },
    {
      "bufferView": 2,
      "byteOffset": 556752,
      "componentType": 5126,
      "count": 12644,
      "max": [
        -7.5524969100952148,
        25.953405380249023,
        5.511225700378418
      ],
      "min": [
        -9.0545253753662109,
        25.175933837890625,
        4.5332651138305664
      ],
      "type": "VEC3"
    },
    {
      "bufferView": 2,
      "byteOffset": 708480,
      "componentType": 5126,
      "count": 12644,
      "max": [
        0.99963945150375366,
        0.99991762638092041,
        0.999988853931427
      ],
      "min": [
        -0.99964034557342529,
        -0.99991810321807861,
        -0.99998873472213745
      ],
      "type": "VEC3"
    },
    {
      "bufferView": 1,
      "byteOffset": 185584,
      "componentType": 5126,
      "count": 12644,
      "max": [
        0.97220498323440552,
        0.96912199258804321
      ],
      "min": [
        0.029581999406218529,
        0.024338999763131142
      ],
      "type": "VEC2"
    },
    {
      "bufferView": 0,
      "byteOffset": 493056,
      "componentType": 5125,
      "count": 74880,
      "max": [
        12643
      ],
      "min": [
        0
      ],
      "type": "SCALAR"
    },
    {
      "bufferView": 2,
      "byteOffset": 860208,
      "componentType": 5126,
      "count": 2860,
      "max": [
        -7.7302694320678711,
        28.986665725708008,
        5.1181321144104004
      ],
      "min": [
        -10.722037315368652,
        26.165840148925781,
        1.3778088092803955
      ],
      "type": "VEC3"
    },
    {
      "bufferView": 2,
      "byteOffset": 894528,
      "componentType": 5126,
      "count": 2860,
      "max": [
        0.99950873851776123,
        0.99975275993347168,
        0.99960625171661377
      ],
      "min": [
        -0.99763178825378418,
        -0.98125886917114258,
        -0.99897921085357666
      ],
      "type": "VEC3"
    },
    {
      "bufferView": 1,
      "byteOffset": 286736,
      "componentType": 5126,
      "count": 2860,
      "max": [
        0.92199301719665527,
        0.98196500539779663
      ],
      "min": [
        0.13800600171089172,
        0.036821000277996063
      ],
      "type": "VEC2"
    },
    {
      "bufferView": 0,
      "byteOffset": 792576,
      "componentType": 5125,
      "count": 16704,
      "max": [
        2859
      ],
      "min": [
        0
      ],
      "type": "SCALAR"
    },
    {
      "bufferView": 2,
      "byteOffset": 928848,
      "componentType": 5126,
      "count": 4494,
      "max": [
        -7.0358304977416992,
        25.153778076171875,
        5.2180137634277344
      ],
      "min": [
        -9.7905130386352539,
        23.522562026977539,
        3.7768502235412598
      ],
      "type": "VEC3"
    },
    {
      "bufferView": 2,
      "byteOffset": 982776,
      "componentType": 5126,
      "count": 4494,
      "max": [
        0.99944847822189331,
        0.99988532066345215,
        0.99967032670974731
      ],
      "min": [
        -0.99865585565567017,
        -0.99988484382629395,
        -0.99999052286148071
      ],
      "type": "VEC3"
    },
    {
      "bufferView": 1,
      "byteOffset": 309616,
      "componentType": 5126,
      "count": 4494,
      "max": [
        0.90970700979232788,
        0.99800801277160645
      ],
      "min": [
        0.0018159999744966626,
        0.0019920000340789557
      ],
      "type": "VEC2"
    },
    {
      "bufferView": 0,
      "byteOffset": 859392,
      "componentType": 5125,
      "count": 25536,
      "max": [
        4493
      ],
      "min": [
        0
      ],
      "type": "SCALAR"
    },
    {
      "bufferView": 2,
      "byteOffset": 1036704,
      "componentType": 5126,
      "count": 2298,
      "max": [
        -8.2826995849609375,
        24.307064056396484,
        3.7739753723144531
      ],
      "min": [
        -9.6935625076293945,
        23.363283157348633,
        2.146094799041748
      ],
      "type": "VEC3"
    },
    {
      "bufferView": 2,
      "byteOffset": 1064280,
      "componentType": 5126,
      "count": 2298,
      "max": [
        0.99959462881088257,
        0.99999463558197021,
        0.98465347290039062
      ],
      "min": [
        -0.99935764074325562,
        -0.99998778104782104,
        -0.98423850536346436
      ],
      "type": "VEC3"
    },
    {
      "bufferView": 1,
      "byteOffset": 345568,
      "componentType": 5126,
      "count": 2298,
      "max": [
        -0.068048998713493347,
        0.93796300888061523
      ],
      "min": [
        -0.96597999334335327,
        0.079072996973991394
      ],
      "type": "VEC2"
    },
    {
      "bufferView": 0,
      "byteOffset": 961536,
      "componentType": 5125,
      "count": 13056,
      "max": [
        2297
      ],
      "min": [
        0
      ],
      "type": "SCALAR"
    }
  ],
  "asset": {
    "extras": {
      "author": "ElSalawwy (https://sketchfab.com/andressalazar264)",
      "license": "CC-BY-4.0 (http://creativecommons.org/licenses/by/4.0/)",
      "source": "https://sketchfab.com/3d-models/mr-meeseks-356fca081a514508bf8d344ec1515d3f",
      "title": "Mr Meeseks"
    },
    "generator": "Sketchfab-8.76.0",
    "version": "2.0"
  },
  "bufferViews": [
    {
      "buffer": 0,
      "byteLength": 1013760,
      "byteOffset": 0,
      "name": "floatBufferViews",
      "target": 34963
    },
    {
      "buffer": 0,
      "byteLength": 363952,
      "byteOffset": 1013760,
      "byteStride": 8,
      "name": "floatBufferViews",
      "target": 34962
    },
    {
      "buffer": 0,
      "byteLength": 1091856,
      "byteOffset": 1377712,
      "byteStride": 12,
      "name": "floatBufferViews",
      "target": 34962
    }
  ],
  "buffers": [
    {
      "byteLength": 2469568,
      "uri": "scene.bin"
    }
  ],
  "images": [
    {
      "uri": "textures/lambert6_baseColor.png"
    },
    {
      "uri": "textures/lambert6_metallicRoughness.png"
    },
    {
      "uri": "textures/lambert3_baseColor.png"
    },
    {
      "uri": "textures/lambert4_baseColor.png"
    },
    {
      "uri": "textures/lambert2_baseColor.png"
    },
    {
      "uri": "textures/lambert5_baseColor.png"
    }
  ],
  "materials": [
    {
      "doubleSided": true,
      "emissiveFactor": [
        0,
        0,
        0
      ],
      "name": "lambert6",
      "occlusionTexture": {
        "index": 1,
        "strength": 1,
        "texCoord": 0
      },
      "pbrMetallicRoughness": {
        "baseColorFactor": [
          1,
          1,
          1,
          1
        ],
        "baseColorTexture": {
          "index": 0,
          "texCoord": 0
        },
        "metallicFactor": 0,
        "metallicRoughnessTexture": {
          "index": 1,
          "texCoord": 0
        },
        "roughnessFactor": 0.5185247675853808
      }
    },
    {
      "doubleSided": true,
      "emissiveFactor": [
        0,
        0,
        0
      ],
      "name": "lambert3",
      "pbrMetallicRoughness": {
        "baseColorFactor": [
          1,
          1,
          1,
          1
        ],
        "baseColorTexture": {
          "index": 2,
          "texCoord": 0
        },
        "metallicFactor": 0,
        "roughnessFactor": 0.35436009217542519
      }
    },
    {
      "doubleSided": true,
      "emissiveFactor": [
        0,
        0,
        0
      ],
      "name": "lambert4",
      "pbrMetallicRoughness": {
        "baseColorFactor": [
          1,
          1,
          1,
          1
        ],
        "baseColorTexture": {
          "index": 3,
          "texCoord": 0
        },
        "metallicFactor": 0,
        "roughnessFactor": 0.59999999999999998
      }
    },
    {
      "doubleSided": true,
      "emissiveFactor": [
        0,
        0,
        0
      ],
      "name": "lambert2",
      "pbrMetallicRoughness": {
        "baseColorFactor": [
          1,
          1,
          1,
          1
        ],
        "baseColorTexture": {
          "index": 4,
          "texCoord": 0
        },
        "metallicFactor": 0,
        "roughnessFactor": 1
      }
    },
    {
      "doubleSided": true,
      "emissiveFactor": [
        0,
        0,
        0
      ],
      "name": "lambert5",
      "pbrMetallicRoughness": {
        "baseColorFactor": [
          1,
          1,
          1,
          1
        ],
        "baseColorTexture": {
          "index": 5,
          "texCoord": 0
        },
        "metallicFactor": 0,
        "roughnessFactor": 0.33611957268543008
      }
    }
  ],
  "meshes": [
    {
      "name": "Cuerpo_lambert6_0",
      "primitives": [
        {
          "attributes": {
            "NORMAL": 1,
            "POSITION": 0,
            "TEXCOORD_0": 2
          },
          "indices": 3,
          "material": 0,
          "mode": 4
        }
      ]
    },
    {
      "name": "Cuerpo_lambert3_0",
      "primitives": [
        {
          "attributes": {
            "NORMAL": 5,
            "POSITION": 4,
            "TEXCOORD_0": 6
          },
          "indices": 7,
          "material": 1,
          "mode": 4
        }
      ]
    },
    {
      "name": "Cuerpo_lambert4_0",
      "primitives": [
        {
          "attributes": {
            "NORMAL": 9,
            "POSITION": 8,
            "TEXCOORD_0": 10
          },
          "indices": 11,
          "material": 2,
          "mode": 4
        }
      ]
    },
    {
      "name": "Cuerpo_lambert2_0",
      "primitives": [
        {
          "attributes": {
            "NORMAL": 13,
            "POSITION": 12,
            "TEXCOORD_0": 14
          },
          "indices": 15,
          "material": 3,
          "mode": 4
        }
      ]
    },
    {
      "name": "Cuerpo_lambert5_0",
      "primitives": [
        {
          "attributes": {
            "NORMAL": 17,
            "POSITION": 16,
            "TEXCOORD_0": 18
          },
          "indices": 19,
          "material": 4,
          "mode": 4
        }
      ]
    }
  ],
  "nodes": [
    {
      "children": [
        1
      ],
      "name": "RootNode (gltf orientation matrix)",
      "rotation": [
        -0.70710678118654746,
        -0,
        -0,
        0.70710678118654757
      ]
    },
    {
      "children": [
        2
      ],
      "name": "RootNode (model correction matrix)"
    },
    {
      "children": [
        3
      ],
      "matrix": [
        1,
        0,
        0,
        0,
        0,
        0,
        1,
        0,
        0,
        -1,
        0,
        0,
        0,
        0,
        0,
        1
      ],
      "name": "96b5a5eede60496baaa10b8c5c9796ae.fbx"
    },
    {
      "children": [
        4
      ],
      "name": "RootNode"
    },
    {
      "children": [
        5,
        6,
        7,
        8,
        9
      ],
      "matrix": [
        1,
        0,
        0,
        0,
        0,
        1,
        0,
        0,
        0,
        0,
        1,
        0,
        8.8600234985351562,
        -0.00033901393180713058,
        -2.5511794090270996,
        1
      ],
      "name": "Cuerpo"
    },
    {
      "mesh": 0,
      "name": "Cuerpo_lambert6_0"
    },
    {
      "mesh": 1,
      "name": "Cuerpo_lambert3_0"
    },
    {
      "mesh": 2,
      "name": "Cuerpo_lambert4_0"
    },
    {
      "mesh": 3,
      "name": "Cuerpo_lambert2_0"
    },
    {
      "mesh": 4,
      "name": "Cuerpo_lambert5_0"
    }
  ],
  "samplers": [
    {
      "magFilter": 9729,
      "minFilter": 9987,
      "wrapS": 10497,
      "wrapT": 10497
    }
  ],
  "scene": 0,
  "scenes": [
    {
      "name": "OSG_Scene",
      "nodes": [
        0
      ]
    }
  ],
  "textures": [
    {
      "sampler": 0,
      "source": 0
    },
    {
      "sampler": 0,
      "source": 1
    },
    {
      "sampler": 0,
      "source": 2
    },
    {
      "sampler": 0,
      "source": 3
    },
    {
      "sampler": 0,
      "source": 4
    },
    {
      "sampler": 0,
      "source": 5
    }
  ]
}

