{
  "accessors": [
    {
      "bufferView": 2,
      "componentType": 5126,
      "count": 7586,
      "max": [
        96.179901123046875,
        53.925197601318359,
        -9.9293699264526367
      ],
      "min": [
        -69.298500061035156,
        -61.328197479248047,
        -163.97000122070312
      ],
      "type": "VEC3"
    },
    {
      "bufferView": 2,
      "byteOffset": 91032,
      "componentType": 5126,
      "count": 7586,
      "max": [
        0.99944925308227539,
        0.99999344348907471,
        0.99999994039535522
      ],
      "min": [
        -0.99954682588577271,
        -0.99987822771072388,
        -1
      ],
      "type": "VEC3"
    },
    {
      "bufferView": 1,
      "componentType": 5126,
      "count": 7586,
      "max": [
        0.98334598541259766,
        0.98003697395324707
      ],
      "min": [
        0.026409000158309937,
        0.01996302604675293
      ],
      "type": "VEC2"
    },
    {
      "bufferView": 0,
      "componentType": 5125,
      "count": 28728,
      "max": [
        7585
      ],
      "min": [
        0
      ],
      "type": "SCALAR"
    }
  ],
  "asset": {
    "extras": {
      "author": "likangning93 (https://sketchfab.com/likangning93)",
      "license": "CC-BY-4.0 (http://creativecommons.org/licenses/by/4.0/)",
      "source": "https://sketchfab.com/3d-models/duck-6e039c6c606c4c26a1359514352629fd",
      "title": "Duck"
    },
    "generator": "Sketchfab-8.11.0",
    "version": "2.0"
  },
  "bufferViews": [
    {
      "buffer": 0,
      "byteLength": 114912,
      "byteOffset": 0,
      "name": "floatBufferViews",
      "target": 34963
    },
    {
      "buffer": 0,
      "byteLength": 60688,
      "byteOffset": 114912,
      "byteStride": 8,
      "name": "floatBufferViews",
      "target": 34962
    },
    {
      "buffer": 0,
      "byteLength": 182064,
      "byteOffset": 175600,
      "byteStride": 12,
      "name": "floatBufferViews",
      "target": 34962
    }
  ],
  "buffers": [
    {
      "byteLength": 357664,
      "uri": "scene.bin"
    }
  ],
  "images": [
    {
      "uri": "textures/blinn3-fx_baseColor.png"
    }
  ],
  "materials": [
    {
      "doubleSided": false,
      "emissiveFactor": [
        0,
        0,
        0
      ],
      "name": "blinn3-fx",
      "pbrMetallicRoughness": {
        "baseColorFactor": [
          1,
          1,
          1,
          1
        ],
        "baseColorTexture": {
          "index": 0,
          "texCoord": 0
        },
        "metallicFactor": 0,
        "roughnessFactor": 1
      }
    }
  ],
  "meshes": [
    {
      "primitives": [
        {
          "attributes": {
            "NORMAL": 1,
            "POSITION": 0,
            "TEXCOORD_0": 2
          },
          "indices": 3,
          "material": 0,
          "mode": 4
        }
      ]
    }
  ],
  "nodes": [
    {
      "children": [
        1
      ],
      "name": "RootNode (gltf orientation matrix)",
      "rotation": [
        -0.70710678118654746,
        -0,
        -0,
        0.70710678118654757
      ]
    },
    {
      "children": [
        2
      ],
      "name": "RootNode (model correction matrix)"
    },
    {
      "children": [
        3
      ],
      "name": "root"
    },
    {
      "children": [
        4
      ],
      "matrix": [
        1,
        0,
        0,
        0,
        0,
        2.2204460492503131e-16,
        1,
        0,
        0,
        -1,
        2.2204460492503131e-16,
        0,
        0,
        0,
        0,
        1
      ],
      "name": "GLTF_SceneRootNode"
    },
    {
      "children": [
        5
      ],
      "matrix": [
        0.0099999997764825821,
        0,
        0,
        0,
        0,
        -1.6858740886418839e-09,
        0.010000000707805014,
        0,
        0,
        -0.010000000707805014,
        -1.6858740886418839e-09,
        0,
        0,
        0,
        0,
        1
      ],
      "name": "Node_2"
    },
    {
      "children": [
        6
      ],
      "name": "LOD3spShape_1"
    },
    {
      "mesh": 0,
      "name": ""
    }
  ],
  "samplers": [
    {
      "magFilter": 9729,
      "minFilter": 9987,
      "wrapS": 10497,
      "wrapT": 10497
    }
  ],
  "scene": 0,
  "scenes": [
    {
      "name": "OSG_Scene",
      "nodes": [
        0
      ]
    }
  ],
  "textures": [
    {
      "sampler": 0,
      "source": 0
    }
  ]
}

